<svg width="14" height="16" viewBox="0 0 14 16" fill="none" xmlns="http://www.w3.org/2000/svg">
<path d="M9.84375 2.25H12.4219C12.5977 2.25 12.7734 2.33789 12.9199 2.45508C13.0371 2.60156 13.125 2.77734 13.125 2.95312V3.01172C13.125 3.07031 13.0957 3.09961 13.0664 3.12891C13.0078 3.1875 12.9785 3.1875 12.9492 3.1875H12.1875V13.9688C12.1875 14.3789 12.041 14.7012 11.7773 14.9648C11.4844 15.2578 11.1621 15.375 10.7812 15.375H2.34375C1.93359 15.375 1.61133 15.2578 1.34766 14.9648C1.05469 14.7012 0.9375 14.3789 0.9375 13.9688V3.1875H0.175781C0.117188 3.1875 0.0878906 3.1875 0.0585938 3.12891C0 3.09961 0 3.07031 0 3.01172V2.95312C0 2.77734 0.0585938 2.60156 0.205078 2.45508C0.322266 2.33789 0.498047 2.25 0.703125 2.25H3.28125L4.27734 0.931641C4.54102 0.580078 4.92188 0.375 5.39062 0.375H7.73438C8.20312 0.375 8.55469 0.580078 8.84766 0.931641L9.84375 2.25ZM5.39062 1.3125C5.21484 1.3125 5.09766 1.37109 5.00977 1.48828L4.45312 2.25H8.67188L8.11523 1.48828C7.99805 1.37109 7.88086 1.3125 7.73438 1.3125H5.39062ZM11.25 13.9688V3.1875H1.875V13.9688C1.875 14.1152 1.9043 14.2324 1.99219 14.3203C2.08008 14.4082 2.19727 14.4375 2.34375 14.4375H10.7812C10.8984 14.4375 11.0156 14.4082 11.1035 14.3203C11.1914 14.2324 11.25 14.1152 11.25 13.9688ZM6.09375 12.6797C6.09375 12.7969 6.12305 12.8848 6.18164 12.9434C6.24023 13.002 6.32812 13.0312 6.44531 13.0312H6.67969C6.76758 13.0312 6.85547 13.002 6.91406 12.9434C6.97266 12.8848 7.03125 12.7969 7.03125 12.6797V4.94531C7.03125 4.85742 6.97266 4.76953 6.91406 4.71094C6.85547 4.65234 6.76758 4.59375 6.67969 4.59375H6.44531C6.32812 4.59375 6.24023 4.65234 6.18164 4.71094C6.12305 4.76953 6.09375 4.85742 6.09375 4.94531V12.6797ZM3.75 12.6797C3.75 12.7969 3.7793 12.8848 3.83789 12.9434C3.89648 13.002 3.98438 13.0312 4.10156 13.0312H4.33594C4.42383 13.0312 4.51172 13.002 4.57031 12.9434C4.62891 12.8848 4.6875 12.7969 4.6875 12.6797V4.94531C4.6875 4.85742 4.62891 4.76953 4.57031 4.71094C4.51172 4.65234 4.42383 4.59375 4.33594 4.59375H4.10156C3.98438 4.59375 3.89648 4.65234 3.83789 4.71094C3.7793 4.76953 3.75 4.85742 3.75 4.94531V12.6797ZM8.4375 12.6797C8.4375 12.7969 8.4668 12.8848 8.52539 12.9434C8.58398 13.002 8.67188 13.0312 8.78906 13.0312H9.02344C9.11133 13.0312 9.19922 13.002 9.25781 12.9434C9.31641 12.8848 9.375 12.7969 9.375 12.6797V4.94531C9.375 4.85742 9.31641 4.76953 9.25781 4.71094C9.19922 4.65234 9.11133 4.59375 9.02344 4.59375H8.78906C8.67188 4.59375 8.58398 4.65234 8.52539 4.71094C8.4668 4.76953 8.4375 4.85742 8.4375 4.94531V12.6797Z" fill="#656E82"/>
</svg>
