<svg width="15" height="14" viewBox="0 0 15 14" fill="none" xmlns="http://www.w3.org/2000/svg">
<path d="M14.279 1.64258C14.6023 1.99079 14.7908 2.39258 14.7908 2.87472C14.7908 3.35686 14.6023 3.75865 14.279 4.08008L4.79783 13.5086L1.6464 13.8569C1.43092 13.8569 1.26931 13.8033 1.16157 13.6426C1.02689 13.5086 0.973024 13.3479 0.999959 13.1336L1.35012 10.0801L10.8313 0.651507C11.1545 0.330078 11.5586 0.142578 12.0434 0.142578C12.5282 0.142578 12.9323 0.330078 13.2824 0.651507L14.279 1.64258ZM4.3938 12.7051L11.5047 5.63365L9.26908 3.41043L2.15817 10.4819L1.88882 12.9729L4.3938 12.7051ZM13.6865 3.46401C13.8481 3.30329 13.9289 3.11579 13.9289 2.87472C13.9289 2.63365 13.8481 2.41936 13.6865 2.25865L12.6629 1.24079C12.5013 1.08008 12.2858 0.999721 12.0434 0.999721C11.801 0.999721 11.6124 1.08008 11.4508 1.24079L9.88859 2.79436L12.1242 5.01758L13.6865 3.46401Z" fill="#656E82"/>
</svg>
