<svg width="14" height="15" viewBox="0 0 14 15" fill="none" xmlns="http://www.w3.org/2000/svg">
<path d="M13.918 13.9297C13.9727 13.9844 14 14.0664 14 14.1484C14 14.2578 13.9727 14.3398 13.918 14.3945L13.6445 14.6406C13.5625 14.7227 13.4805 14.75 13.3984 14.75C13.2891 14.75 13.2344 14.7227 13.1797 14.6406L9.65234 11.1133C9.57031 11.0586 9.54297 11.0039 9.54297 10.8945V10.6211C9.02344 11.1133 8.42188 11.4688 7.76562 11.7422C7.10938 12.0156 6.39844 12.125 5.6875 12.125C4.64844 12.125 3.69141 11.8789 2.81641 11.3594C1.94141 10.8672 1.25781 10.1836 0.765625 9.30859C0.246094 8.43359 0 7.47656 0 6.4375C0 5.39844 0.246094 4.46875 0.765625 3.59375C1.25781 2.71875 1.94141 2.03516 2.81641 1.51562C3.69141 1.02344 4.64844 0.75 5.6875 0.75C6.72656 0.75 7.65625 1.02344 8.53125 1.51562C9.40625 2.03516 10.0898 2.71875 10.6094 3.59375C11.1016 4.46875 11.375 5.39844 11.375 6.4375C11.375 7.17578 11.2383 7.88672 10.9648 8.54297C10.6914 9.19922 10.3359 9.80078 9.87109 10.293H10.1445C10.2266 10.293 10.3086 10.3477 10.3906 10.4023L13.918 13.9297ZM5.6875 11.25C6.5625 11.25 7.35547 11.0586 8.09375 10.6211C8.83203 10.1836 9.40625 9.60938 9.84375 8.87109C10.2812 8.13281 10.5 7.3125 10.5 6.4375C10.5 5.5625 10.2812 4.76953 9.84375 4.03125C9.40625 3.29297 8.83203 2.71875 8.09375 2.28125C7.35547 1.84375 6.5625 1.625 5.6875 1.625C4.8125 1.625 3.99219 1.84375 3.25391 2.28125C2.51562 2.71875 1.94141 3.29297 1.50391 4.03125C1.06641 4.76953 0.875 5.5625 0.875 6.4375C0.875 7.3125 1.06641 8.13281 1.50391 8.87109C1.94141 9.60938 2.51562 10.1836 3.25391 10.6211C3.99219 11.0586 4.8125 11.25 5.6875 11.25Z" fill="#656E82"/>
</svg>
